<?xml version="1.0" encoding="UTF-8" standalone="no"?>
<!DOCTYPE svg PUBLIC "-//W3C//DTD SVG 1.1//EN"
 "http://www.w3.org/Graphics/SVG/1.1/DTD/svg11.dtd">
<!-- Generated by graphviz version 2.38.0 (20140413.2041)
 -->
<!-- Title: G Pages: 1 -->
<svg width="402pt" height="791pt"
 viewBox="0.00 0.00 402.09 791.10" xmlns="http://www.w3.org/2000/svg" xmlns:xlink="http://www.w3.org/1999/xlink">
<g id="graph0" class="graph" transform="scale(1 1) rotate(0) translate(4 787.1)">
<title>G</title>
<polygon fill="white" stroke="none" points="-4,4 -4,-787.1 398.09,-787.1 398.09,4 -4,4"/>
<!-- n1 -->
<g id="node1" class="node"><title>n1</title>
<g id="a_node1"><a xlink:title="[./creationRNN.lua]:60_">
<ellipse fill="none" stroke="black" cx="197.045" cy="-148.43" rx="98.9899" ry="37.4533"/>
<text text-anchor="middle" x="197.045" y="-159.73" font-family="Times,serif" font-size="14.00">DECODE1 (1)</text>
<text text-anchor="start" x="135.045" y="-144.73" font-family="Times,serif" font-size="14.00">module = nn.gModule</text>
<text text-anchor="middle" x="197.045" y="-129.73" font-family="Times,serif" font-size="14.00">reverseMap = {}</text>
</a>
</g>
</g>
<!-- n2 -->
<g id="node2" class="node"><title>n2</title>
<g id="a_node2"><a xlink:title="[[C]]:&#45;1_">
<ellipse fill="none" stroke="black" cx="197.045" cy="-37.4767" rx="77.5641" ry="37.4533"/>
<text text-anchor="middle" x="197.045" y="-48.7767" font-family="Times,serif" font-size="14.00">Node2</text>
<text text-anchor="start" x="150.045" y="-33.7767" font-family="Times,serif" font-size="14.00">input = {}</text>
<text text-anchor="middle" x="197.045" y="-18.7767" font-family="Times,serif" font-size="14.00">reverseMap = {}</text>
</a>
</g>
</g>
<!-- n1&#45;&gt;n2 -->
<g id="edge1" class="edge"><title>n1&#45;&gt;n2</title>
<path fill="none" stroke="black" d="M197.045,-110.847C197.045,-102.672 197.045,-93.8927 197.045,-85.3661"/>
<polygon fill="black" stroke="black" points="200.545,-85.1485 197.045,-75.1485 193.545,-85.1486 200.545,-85.1485"/>
</g>
<!-- n3 -->
<g id="node3" class="node"><title>n3</title>
<g id="a_node3"><a xlink:title="[./creationRNN.lua]:59_">
<ellipse fill="none" stroke="black" cx="197.045" cy="-269.99" rx="124.402" ry="48.1667"/>
<text text-anchor="middle" x="197.045" y="-288.79" font-family="Times,serif" font-size="14.00">GRU1 (3)</text>
<text text-anchor="start" x="117.045" y="-273.79" font-family="Times,serif" font-size="14.00">module = nn.gModule</text>
<text text-anchor="start" x="117.045" y="-258.79" font-family="Times,serif" font-size="14.00">reverseMap = {}</text>
<text text-anchor="middle" x="197.045" y="-243.79" font-family="Times,serif" font-size="14.00">mapindex = {Node4,Node5}</text>
</a>
</g>
</g>
<!-- n3&#45;&gt;n1 -->
<g id="edge2" class="edge"><title>n3&#45;&gt;n1</title>
<path fill="none" stroke="black" d="M197.045,-221.737C197.045,-213.291 197.045,-204.496 197.045,-196.068"/>
<polygon fill="black" stroke="black" points="200.545,-196.018 197.045,-186.018 193.545,-196.018 200.545,-196.018"/>
</g>
<!-- n4 -->
<g id="node4" class="node"><title>n4</title>
<g id="a_node4"><a xlink:title="[./creationRNN.lua]:53_">
<ellipse fill="none" stroke="black" cx="94.0452" cy="-391.55" rx="94.0904" ry="37.4533"/>
<text text-anchor="middle" x="94.0452" y="-402.85" font-family="Times,serif" font-size="14.00">Z ZE FIRST (4)</text>
<text text-anchor="start" x="35.5452" y="-387.85" font-family="Times,serif" font-size="14.00">module = nn.Identity</text>
<text text-anchor="middle" x="94.0452" y="-372.85" font-family="Times,serif" font-size="14.00">reverseMap = {}</text>
</a>
</g>
</g>
<!-- n4&#45;&gt;n3 -->
<g id="edge3" class="edge"><title>n4&#45;&gt;n3</title>
<path fill="none" stroke="black" d="M123.837,-355.968C132.623,-345.77 142.44,-334.374 151.961,-323.323"/>
<polygon fill="black" stroke="black" points="154.613,-325.607 158.488,-315.746 149.309,-321.038 154.613,-325.607"/>
</g>
<!-- n5 -->
<g id="node5" class="node"><title>n5</title>
<g id="a_node5"><a xlink:title="[./creationRNN.lua]:58_">
<ellipse fill="none" stroke="black" cx="300.045" cy="-391.55" rx="94.0904" ry="37.4533"/>
<text text-anchor="middle" x="300.045" y="-402.85" font-family="Times,serif" font-size="14.00">input1 (5)</text>
<text text-anchor="start" x="241.545" y="-387.85" font-family="Times,serif" font-size="14.00">module = nn.Identity</text>
<text text-anchor="middle" x="300.045" y="-372.85" font-family="Times,serif" font-size="14.00">reverseMap = {}</text>
</a>
</g>
</g>
<!-- n5&#45;&gt;n3 -->
<g id="edge4" class="edge"><title>n5&#45;&gt;n3</title>
<path fill="none" stroke="black" d="M270.253,-355.968C261.468,-345.77 251.65,-334.374 242.13,-323.323"/>
<polygon fill="black" stroke="black" points="244.781,-321.038 235.602,-315.746 239.478,-325.607 244.781,-321.038"/>
</g>
<!-- n6 -->
<g id="node6" class="node"><title>n6</title>
<g id="a_node6"><a xlink:title="[[C]]:&#45;1_&#45;1">
<ellipse fill="none" stroke="black" cx="102.045" cy="-513.11" rx="77.5641" ry="48.1667"/>
<text text-anchor="middle" x="102.045" y="-531.91" font-family="Times,serif" font-size="14.00">Node6</text>
<text text-anchor="start" x="55.0452" y="-516.91" font-family="Times,serif" font-size="14.00">input = {}</text>
<text text-anchor="start" x="55.0452" y="-501.91" font-family="Times,serif" font-size="14.00">selectindex = 1</text>
<text text-anchor="middle" x="102.045" y="-486.91" font-family="Times,serif" font-size="14.00">reverseMap = {}</text>
</a>
</g>
</g>
<!-- n6&#45;&gt;n4 -->
<g id="edge5" class="edge"><title>n6&#45;&gt;n4</title>
<path fill="none" stroke="black" d="M98.8834,-464.856C98.3183,-456.411 97.7298,-447.616 97.1659,-439.188"/>
<polygon fill="black" stroke="black" points="100.653,-438.882 96.4934,-429.138 93.6689,-439.349 100.653,-438.882"/>
</g>
<!-- n7 -->
<g id="node7" class="node"><title>n7</title>
<g id="a_node7"><a xlink:title="[[C]]:&#45;1_&#45;2">
<ellipse fill="none" stroke="black" cx="292.045" cy="-513.11" rx="77.5641" ry="48.1667"/>
<text text-anchor="middle" x="292.045" y="-531.91" font-family="Times,serif" font-size="14.00">Node7</text>
<text text-anchor="start" x="245.045" y="-516.91" font-family="Times,serif" font-size="14.00">input = {}</text>
<text text-anchor="start" x="245.045" y="-501.91" font-family="Times,serif" font-size="14.00">selectindex = 2</text>
<text text-anchor="middle" x="292.045" y="-486.91" font-family="Times,serif" font-size="14.00">reverseMap = {}</text>
</a>
</g>
</g>
<!-- n7&#45;&gt;n5 -->
<g id="edge6" class="edge"><title>n7&#45;&gt;n5</title>
<path fill="none" stroke="black" d="M295.207,-464.856C295.772,-456.411 296.361,-447.616 296.925,-439.188"/>
<polygon fill="black" stroke="black" points="300.422,-439.349 297.597,-429.138 293.437,-438.882 300.422,-439.349"/>
</g>
<!-- n8 -->
<g id="node8" class="node"><title>n8</title>
<g id="a_node8"><a xlink:title="[[C]]:&#45;1_ split at [.../mathieu/torch/install/share/lua/5.1/nngraph/gmodule.lua]:96&#45;mnode">
<ellipse fill="none" stroke="black" cx="189.045" cy="-634.67" rx="80.7205" ry="37.4533"/>
<text text-anchor="middle" x="189.045" y="-645.97" font-family="Times,serif" font-size="14.00">Node8</text>
<text text-anchor="start" x="140.045" y="-630.97" font-family="Times,serif" font-size="14.00">reverseMap = {}</text>
<text text-anchor="middle" x="189.045" y="-615.97" font-family="Times,serif" font-size="14.00">nSplitOutputs = 2</text>
</a>
</g>
</g>
<!-- n8&#45;&gt;n6 -->
<g id="edge7" class="edge"><title>n8&#45;&gt;n6</title>
<path fill="none" stroke="black" d="M163.647,-598.767C156.06,-588.339 147.578,-576.683 139.393,-565.435"/>
<polygon fill="black" stroke="black" points="142.216,-563.366 133.502,-557.34 136.556,-567.485 142.216,-563.366"/>
</g>
<!-- n8&#45;&gt;n7 -->
<g id="edge8" class="edge"><title>n8&#45;&gt;n7</title>
<path fill="none" stroke="black" d="M218.285,-599.728C227.945,-588.515 238.899,-575.8 249.354,-563.664"/>
<polygon fill="black" stroke="black" points="252.259,-565.656 256.134,-555.795 246.955,-561.087 252.259,-565.656"/>
</g>
<!-- n9 -->
<g id="node9" class="node"><title>n9</title>
<g id="a_node9"><a xlink:title="[[C]]:&#45;1_">
<ellipse fill="none" stroke="black" cx="189.045" cy="-745.623" rx="77.5641" ry="37.4533"/>
<text text-anchor="middle" x="189.045" y="-756.923" font-family="Times,serif" font-size="14.00">Node9</text>
<text text-anchor="start" x="142.045" y="-741.923" font-family="Times,serif" font-size="14.00">input = {}</text>
<text text-anchor="middle" x="189.045" y="-726.923" font-family="Times,serif" font-size="14.00">reverseMap = {}</text>
</a>
</g>
</g>
<!-- n9&#45;&gt;n8 -->
<g id="edge9" class="edge"><title>n9&#45;&gt;n8</title>
<path fill="none" stroke="black" d="M189.045,-708.04C189.045,-699.865 189.045,-691.086 189.045,-682.559"/>
<polygon fill="black" stroke="black" points="192.545,-682.342 189.045,-672.342 185.545,-682.342 192.545,-682.342"/>
</g>
</g>
</svg>
