<?xml version="1.0" encoding="UTF-8" standalone="no"?>
<!DOCTYPE svg PUBLIC "-//W3C//DTD SVG 1.1//EN"
 "http://www.w3.org/Graphics/SVG/1.1/DTD/svg11.dtd">
<!-- Generated by graphviz version 2.38.0 (20140413.2041)
 -->
<!-- Title: G Pages: 1 -->
<svg width="578pt" height="944pt"
 viewBox="0.00 0.00 578.50 944.48" xmlns="http://www.w3.org/2000/svg" xmlns:xlink="http://www.w3.org/1999/xlink">
<g id="graph0" class="graph" transform="scale(1 1) rotate(0) translate(4 940.479)">
<title>G</title>
<polygon fill="white" stroke="none" points="-4,4 -4,-940.479 574.496,-940.479 574.496,4 -4,4"/>
<!-- n1 -->
<g id="node1" class="node"><title>n1</title>
<g id="a_node1"><a xlink:title="[./creationRNN.lua]:59_">
<ellipse fill="none" stroke="black" cx="230.045" cy="-169.643" rx="98.9899" ry="37.4533"/>
<text text-anchor="middle" x="230.045" y="-180.943" font-family="Times,serif" font-size="14.00">DECODE1 (1)</text>
<text text-anchor="start" x="168.045" y="-165.943" font-family="Times,serif" font-size="14.00">module = nn.gModule</text>
<text text-anchor="middle" x="230.045" y="-150.943" font-family="Times,serif" font-size="14.00">reverseMap = {}</text>
</a>
</g>
</g>
<!-- n2 -->
<g id="node2" class="node"><title>n2</title>
<g id="a_node2"><a xlink:title="[[C]]:&#45;1_">
<ellipse fill="none" stroke="black" cx="338.045" cy="-48.0833" rx="124.402" ry="48.1667"/>
<text text-anchor="middle" x="338.045" y="-66.8833" font-family="Times,serif" font-size="14.00">Node2</text>
<text text-anchor="start" x="258.045" y="-51.8833" font-family="Times,serif" font-size="14.00">input = {}</text>
<text text-anchor="start" x="258.045" y="-36.8833" font-family="Times,serif" font-size="14.00">mapindex = {Node1,Node3}</text>
<text text-anchor="middle" x="338.045" y="-21.8833" font-family="Times,serif" font-size="14.00">reverseMap = {}</text>
</a>
</g>
</g>
<!-- n1&#45;&gt;n2 -->
<g id="edge1" class="edge"><title>n1&#45;&gt;n2</title>
<path fill="none" stroke="black" d="M261.283,-134.061C270.496,-123.863 280.79,-112.467 290.772,-101.416"/>
<polygon fill="black" stroke="black" points="293.51,-103.606 297.616,-93.8394 288.316,-98.914 293.51,-103.606"/>
</g>
<!-- n3 -->
<g id="node3" class="node"><title>n3</title>
<g id="a_node3"><a xlink:title="[./creationRNN.lua]:59_">
<ellipse fill="none" stroke="black" cx="446.045" cy="-169.643" rx="98.9899" ry="37.4533"/>
<text text-anchor="middle" x="446.045" y="-180.943" font-family="Times,serif" font-size="14.00">DECODE2 (3)</text>
<text text-anchor="start" x="384.045" y="-165.943" font-family="Times,serif" font-size="14.00">module = nn.gModule</text>
<text text-anchor="middle" x="446.045" y="-150.943" font-family="Times,serif" font-size="14.00">reverseMap = {}</text>
</a>
</g>
</g>
<!-- n3&#45;&gt;n2 -->
<g id="edge2" class="edge"><title>n3&#45;&gt;n2</title>
<path fill="none" stroke="black" d="M414.807,-134.061C405.595,-123.863 395.301,-112.467 385.318,-101.416"/>
<polygon fill="black" stroke="black" points="387.775,-98.914 378.474,-93.8394 382.58,-103.606 387.775,-98.914"/>
</g>
<!-- n4 -->
<g id="node4" class="node"><title>n4</title>
<g id="a_node4"><a xlink:title="[./creationRNN.lua]:58_">
<ellipse fill="none" stroke="black" cx="230.045" cy="-423.37" rx="124.402" ry="48.1667"/>
<text text-anchor="middle" x="230.045" y="-442.17" font-family="Times,serif" font-size="14.00">GRU1 (4)</text>
<text text-anchor="start" x="150.045" y="-427.17" font-family="Times,serif" font-size="14.00">module = nn.gModule</text>
<text text-anchor="start" x="150.045" y="-412.17" font-family="Times,serif" font-size="14.00">reverseMap = {}</text>
<text text-anchor="middle" x="230.045" y="-397.17" font-family="Times,serif" font-size="14.00">mapindex = {Node6,Node7}</text>
</a>
</g>
</g>
<!-- n4&#45;&gt;n1 -->
<g id="edge3" class="edge"><title>n4&#45;&gt;n1</title>
<path fill="none" stroke="black" d="M230.045,-375.022C230.045,-329.834 230.045,-262.165 230.045,-217.232"/>
<polygon fill="black" stroke="black" points="233.545,-217.166 230.045,-207.166 226.545,-217.167 233.545,-217.166"/>
</g>
<!-- n5 -->
<g id="node5" class="node"><title>n5</title>
<g id="a_node5"><a xlink:title="[./creationRNN.lua]:58_">
<ellipse fill="none" stroke="black" cx="446.045" cy="-291.203" rx="124.402" ry="48.1667"/>
<text text-anchor="middle" x="446.045" y="-310.003" font-family="Times,serif" font-size="14.00">GRU2 (5)</text>
<text text-anchor="start" x="366.045" y="-295.003" font-family="Times,serif" font-size="14.00">module = nn.gModule</text>
<text text-anchor="start" x="366.045" y="-280.003" font-family="Times,serif" font-size="14.00">reverseMap = {}</text>
<text text-anchor="middle" x="446.045" y="-265.003" font-family="Times,serif" font-size="14.00">mapindex = {Node4,Node8}</text>
</a>
</g>
</g>
<!-- n4&#45;&gt;n5 -->
<g id="edge7" class="edge"><title>n4&#45;&gt;n5</title>
<path fill="none" stroke="black" d="M296.32,-382.431C319.956,-368.187 346.743,-352.045 371.059,-337.391"/>
<polygon fill="black" stroke="black" points="373.137,-340.226 379.895,-332.066 369.524,-334.23 373.137,-340.226"/>
</g>
<!-- n5&#45;&gt;n3 -->
<g id="edge4" class="edge"><title>n5&#45;&gt;n3</title>
<path fill="none" stroke="black" d="M446.045,-242.95C446.045,-234.504 446.045,-225.71 446.045,-217.281"/>
<polygon fill="black" stroke="black" points="449.545,-217.231 446.045,-207.231 442.545,-217.231 449.545,-217.231"/>
</g>
<!-- n6 -->
<g id="node6" class="node"><title>n6</title>
<g id="a_node6"><a xlink:title="[./creationRNN.lua]:53_">
<ellipse fill="none" stroke="black" cx="94.0452" cy="-544.93" rx="94.0904" ry="37.4533"/>
<text text-anchor="middle" x="94.0452" y="-556.23" font-family="Times,serif" font-size="14.00">Z ZE FIRST (6)</text>
<text text-anchor="start" x="35.5452" y="-541.23" font-family="Times,serif" font-size="14.00">module = nn.Identity</text>
<text text-anchor="middle" x="94.0452" y="-526.23" font-family="Times,serif" font-size="14.00">reverseMap = {}</text>
</a>
</g>
</g>
<!-- n6&#45;&gt;n4 -->
<g id="edge5" class="edge"><title>n6&#45;&gt;n4</title>
<path fill="none" stroke="black" d="M131.929,-510.625C144.728,-499.374 159.31,-486.554 173.248,-474.301"/>
<polygon fill="black" stroke="black" points="175.709,-476.798 180.909,-467.567 171.087,-471.54 175.709,-476.798"/>
</g>
<!-- n7 -->
<g id="node7" class="node"><title>n7</title>
<g id="a_node7"><a xlink:title="[./creationRNN.lua]:57_">
<ellipse fill="none" stroke="black" cx="300.045" cy="-544.93" rx="94.0904" ry="37.4533"/>
<text text-anchor="middle" x="300.045" y="-556.23" font-family="Times,serif" font-size="14.00">input1 (7)</text>
<text text-anchor="start" x="241.545" y="-541.23" font-family="Times,serif" font-size="14.00">module = nn.Identity</text>
<text text-anchor="middle" x="300.045" y="-526.23" font-family="Times,serif" font-size="14.00">reverseMap = {}</text>
</a>
</g>
</g>
<!-- n7&#45;&gt;n4 -->
<g id="edge6" class="edge"><title>n7&#45;&gt;n4</title>
<path fill="none" stroke="black" d="M279.232,-508.381C273.925,-499.317 268.094,-489.357 262.36,-479.563"/>
<polygon fill="black" stroke="black" points="265.212,-477.507 257.139,-470.645 259.171,-481.044 265.212,-477.507"/>
</g>
<!-- n8 -->
<g id="node8" class="node"><title>n8</title>
<g id="a_node8"><a xlink:title="[./creationRNN.lua]:57_">
<ellipse fill="none" stroke="black" cx="466.045" cy="-423.37" rx="94.0904" ry="37.4533"/>
<text text-anchor="middle" x="466.045" y="-434.67" font-family="Times,serif" font-size="14.00">input2 (8)</text>
<text text-anchor="start" x="407.545" y="-419.67" font-family="Times,serif" font-size="14.00">module = nn.Identity</text>
<text text-anchor="middle" x="466.045" y="-404.67" font-family="Times,serif" font-size="14.00">reverseMap = {}</text>
</a>
</g>
</g>
<!-- n8&#45;&gt;n5 -->
<g id="edge8" class="edge"><title>n8&#45;&gt;n5</title>
<path fill="none" stroke="black" d="M460.421,-385.765C458.688,-374.485 456.736,-361.785 454.843,-349.463"/>
<polygon fill="black" stroke="black" points="458.251,-348.595 453.273,-339.242 451.332,-349.658 458.251,-348.595"/>
</g>
<!-- n9 -->
<g id="node9" class="node"><title>n9</title>
<g id="a_node9"><a xlink:title="[[C]]:&#45;1_&#45;1">
<ellipse fill="none" stroke="black" cx="102.045" cy="-666.489" rx="77.5641" ry="48.1667"/>
<text text-anchor="middle" x="102.045" y="-685.289" font-family="Times,serif" font-size="14.00">Node9</text>
<text text-anchor="start" x="55.0452" y="-670.289" font-family="Times,serif" font-size="14.00">input = {}</text>
<text text-anchor="start" x="55.0452" y="-655.289" font-family="Times,serif" font-size="14.00">selectindex = 1</text>
<text text-anchor="middle" x="102.045" y="-640.289" font-family="Times,serif" font-size="14.00">reverseMap = {}</text>
</a>
</g>
</g>
<!-- n9&#45;&gt;n6 -->
<g id="edge9" class="edge"><title>n9&#45;&gt;n6</title>
<path fill="none" stroke="black" d="M98.8834,-618.236C98.3183,-609.791 97.7298,-600.996 97.1659,-592.568"/>
<polygon fill="black" stroke="black" points="100.653,-592.261 96.4934,-582.517 93.6689,-592.729 100.653,-592.261"/>
</g>
<!-- n10 -->
<g id="node10" class="node"><title>n10</title>
<g id="a_node10"><a xlink:title="[[C]]:&#45;1_&#45;2">
<ellipse fill="none" stroke="black" cx="292.045" cy="-666.489" rx="77.5641" ry="48.1667"/>
<text text-anchor="middle" x="292.045" y="-685.289" font-family="Times,serif" font-size="14.00">Node10</text>
<text text-anchor="start" x="245.045" y="-670.289" font-family="Times,serif" font-size="14.00">input = {}</text>
<text text-anchor="start" x="245.045" y="-655.289" font-family="Times,serif" font-size="14.00">selectindex = 2</text>
<text text-anchor="middle" x="292.045" y="-640.289" font-family="Times,serif" font-size="14.00">reverseMap = {}</text>
</a>
</g>
</g>
<!-- n10&#45;&gt;n7 -->
<g id="edge10" class="edge"><title>n10&#45;&gt;n7</title>
<path fill="none" stroke="black" d="M295.207,-618.236C295.772,-609.791 296.361,-600.996 296.925,-592.568"/>
<polygon fill="black" stroke="black" points="300.422,-592.729 297.597,-582.517 293.437,-592.261 300.422,-592.729"/>
</g>
<!-- n11 -->
<g id="node11" class="node"><title>n11</title>
<g id="a_node11"><a xlink:title="[[C]]:&#45;1_&#45;3">
<ellipse fill="none" stroke="black" cx="466.045" cy="-666.489" rx="77.5641" ry="48.1667"/>
<text text-anchor="middle" x="466.045" y="-685.289" font-family="Times,serif" font-size="14.00">Node11</text>
<text text-anchor="start" x="419.045" y="-670.289" font-family="Times,serif" font-size="14.00">input = {}</text>
<text text-anchor="start" x="419.045" y="-655.289" font-family="Times,serif" font-size="14.00">selectindex = 3</text>
<text text-anchor="middle" x="466.045" y="-640.289" font-family="Times,serif" font-size="14.00">reverseMap = {}</text>
</a>
</g>
</g>
<!-- n11&#45;&gt;n8 -->
<g id="edge11" class="edge"><title>n11&#45;&gt;n8</title>
<path fill="none" stroke="black" d="M466.045,-618.14C466.045,-575.568 466.045,-513.394 466.045,-471.034"/>
<polygon fill="black" stroke="black" points="469.545,-470.982 466.045,-460.982 462.545,-470.982 469.545,-470.982"/>
</g>
<!-- n12 -->
<g id="node12" class="node"><title>n12</title>
<g id="a_node12"><a xlink:title="[[C]]:&#45;1_ split at [.../mathieu/torch/install/share/lua/5.1/nngraph/gmodule.lua]:96&#45;mnode">
<ellipse fill="none" stroke="black" cx="292.045" cy="-788.049" rx="80.7205" ry="37.4533"/>
<text text-anchor="middle" x="292.045" y="-799.349" font-family="Times,serif" font-size="14.00">Node12</text>
<text text-anchor="start" x="243.045" y="-784.349" font-family="Times,serif" font-size="14.00">reverseMap = {}</text>
<text text-anchor="middle" x="292.045" y="-769.349" font-family="Times,serif" font-size="14.00">nSplitOutputs = 3</text>
</a>
</g>
</g>
<!-- n12&#45;&gt;n9 -->
<g id="edge12" class="edge"><title>n12&#45;&gt;n9</title>
<path fill="none" stroke="black" d="M245.079,-757.495C220.791,-742.212 190.819,-723.352 164.596,-706.85"/>
<polygon fill="black" stroke="black" points="166.188,-703.717 155.86,-701.353 162.46,-709.642 166.188,-703.717"/>
</g>
<!-- n12&#45;&gt;n10 -->
<g id="edge13" class="edge"><title>n12&#45;&gt;n10</title>
<path fill="none" stroke="black" d="M292.045,-750.528C292.045,-742.433 292.045,-733.664 292.045,-724.961"/>
<polygon fill="black" stroke="black" points="295.545,-724.818 292.045,-714.818 288.545,-724.818 295.545,-724.818"/>
</g>
<!-- n12&#45;&gt;n11 -->
<g id="edge14" class="edge"><title>n12&#45;&gt;n11</title>
<path fill="none" stroke="black" d="M336.403,-756.57C357.656,-741.967 383.419,-724.264 406.362,-708.499"/>
<polygon fill="black" stroke="black" points="408.414,-711.336 414.673,-702.788 404.449,-705.567 408.414,-711.336"/>
</g>
<!-- n13 -->
<g id="node13" class="node"><title>n13</title>
<g id="a_node13"><a xlink:title="[[C]]:&#45;1_">
<ellipse fill="none" stroke="black" cx="292.045" cy="-899.003" rx="77.5641" ry="37.4533"/>
<text text-anchor="middle" x="292.045" y="-910.303" font-family="Times,serif" font-size="14.00">Node13</text>
<text text-anchor="start" x="245.045" y="-895.303" font-family="Times,serif" font-size="14.00">input = {}</text>
<text text-anchor="middle" x="292.045" y="-880.303" font-family="Times,serif" font-size="14.00">reverseMap = {}</text>
</a>
</g>
</g>
<!-- n13&#45;&gt;n12 -->
<g id="edge15" class="edge"><title>n13&#45;&gt;n12</title>
<path fill="none" stroke="black" d="M292.045,-861.42C292.045,-853.245 292.045,-844.465 292.045,-835.939"/>
<polygon fill="black" stroke="black" points="295.545,-835.721 292.045,-825.721 288.545,-835.721 295.545,-835.721"/>
</g>
</g>
</svg>
