<?xml version="1.0" encoding="UTF-8" standalone="no"?>
<!DOCTYPE svg PUBLIC "-//W3C//DTD SVG 1.1//EN"
 "http://www.w3.org/Graphics/SVG/1.1/DTD/svg11.dtd">
<!-- Generated by graphviz version 2.38.0 (20140413.2041)
 -->
<!-- Title: G Pages: 1 -->
<svg width="761pt" height="1098pt"
 viewBox="0.00 0.00 761.09 1097.86" xmlns="http://www.w3.org/2000/svg" xmlns:xlink="http://www.w3.org/1999/xlink">
<g id="graph0" class="graph" transform="scale(1 1) rotate(0) translate(4 1093.86)">
<title>G</title>
<polygon fill="white" stroke="none" points="-4,4 -4,-1093.86 757.09,-1093.86 757.09,4 -4,4"/>
<!-- n1 -->
<g id="node1" class="node"><title>n1</title>
<g id="a_node1"><a xlink:title="[./creationRNN.lua]:59_">
<ellipse fill="none" stroke="black" cx="232.045" cy="-169.643" rx="98.9899" ry="37.4533"/>
<text text-anchor="middle" x="232.045" y="-180.943" font-family="Times,serif" font-size="14.00">DECODE1 (1)</text>
<text text-anchor="start" x="170.045" y="-165.943" font-family="Times,serif" font-size="14.00">module = nn.gModule</text>
<text text-anchor="middle" x="232.045" y="-150.943" font-family="Times,serif" font-size="14.00">reverseMap = {}</text>
</a>
</g>
</g>
<!-- n2 -->
<g id="node2" class="node"><title>n2</title>
<g id="a_node2"><a xlink:title="[[C]]:&#45;1_">
<ellipse fill="none" stroke="black" cx="369.045" cy="-48.0833" rx="152.056" ry="48.1667"/>
<text text-anchor="middle" x="369.045" y="-66.8833" font-family="Times,serif" font-size="14.00">Node2</text>
<text text-anchor="start" x="269.545" y="-51.8833" font-family="Times,serif" font-size="14.00">input = {}</text>
<text text-anchor="start" x="269.545" y="-36.8833" font-family="Times,serif" font-size="14.00">mapindex = {Node1,Node3,Node4}</text>
<text text-anchor="middle" x="369.045" y="-21.8833" font-family="Times,serif" font-size="14.00">reverseMap = {}</text>
</a>
</g>
</g>
<!-- n1&#45;&gt;n2 -->
<g id="edge1" class="edge"><title>n1&#45;&gt;n2</title>
<path fill="none" stroke="black" d="M270.572,-135.021C282.877,-124.282 296.79,-112.14 310.2,-100.438"/>
<polygon fill="black" stroke="black" points="312.788,-102.825 318.021,-93.6123 308.185,-97.5505 312.788,-102.825"/>
</g>
<!-- n3 -->
<g id="node3" class="node"><title>n3</title>
<g id="a_node3"><a xlink:title="[./creationRNN.lua]:59_">
<ellipse fill="none" stroke="black" cx="369.045" cy="-291.203" rx="98.9899" ry="37.4533"/>
<text text-anchor="middle" x="369.045" y="-302.503" font-family="Times,serif" font-size="14.00">DECODE2 (3)</text>
<text text-anchor="start" x="307.045" y="-287.503" font-family="Times,serif" font-size="14.00">module = nn.gModule</text>
<text text-anchor="middle" x="369.045" y="-272.503" font-family="Times,serif" font-size="14.00">reverseMap = {}</text>
</a>
</g>
</g>
<!-- n3&#45;&gt;n2 -->
<g id="edge2" class="edge"><title>n3&#45;&gt;n2</title>
<path fill="none" stroke="black" d="M369.045,-253.582C369.045,-214.511 369.045,-152.09 369.045,-106.478"/>
<polygon fill="black" stroke="black" points="372.545,-106.435 369.045,-96.4353 365.545,-106.435 372.545,-106.435"/>
</g>
<!-- n4 -->
<g id="node4" class="node"><title>n4</title>
<g id="a_node4"><a xlink:title="[./creationRNN.lua]:59_">
<ellipse fill="none" stroke="black" cx="555.045" cy="-169.643" rx="98.9899" ry="37.4533"/>
<text text-anchor="middle" x="555.045" y="-180.943" font-family="Times,serif" font-size="14.00">DECODE3 (4)</text>
<text text-anchor="start" x="493.045" y="-165.943" font-family="Times,serif" font-size="14.00">module = nn.gModule</text>
<text text-anchor="middle" x="555.045" y="-150.943" font-family="Times,serif" font-size="14.00">reverseMap = {}</text>
</a>
</g>
</g>
<!-- n4&#45;&gt;n2 -->
<g id="edge3" class="edge"><title>n4&#45;&gt;n2</title>
<path fill="none" stroke="black" d="M505.689,-136.917C486.676,-124.696 464.516,-110.451 443.644,-97.0348"/>
<polygon fill="black" stroke="black" points="445.406,-94.007 435.102,-91.544 441.621,-99.8954 445.406,-94.007"/>
</g>
<!-- n5 -->
<g id="node5" class="node"><title>n5</title>
<g id="a_node5"><a xlink:title="[./creationRNN.lua]:58_">
<ellipse fill="none" stroke="black" cx="217.045" cy="-555.536" rx="124.402" ry="48.1667"/>
<text text-anchor="middle" x="217.045" y="-574.336" font-family="Times,serif" font-size="14.00">GRU1 (5)</text>
<text text-anchor="start" x="137.045" y="-559.336" font-family="Times,serif" font-size="14.00">module = nn.gModule</text>
<text text-anchor="start" x="137.045" y="-544.336" font-family="Times,serif" font-size="14.00">reverseMap = {}</text>
<text text-anchor="middle" x="217.045" y="-529.336" font-family="Times,serif" font-size="14.00">mapindex = {Node8,Node9}</text>
</a>
</g>
</g>
<!-- n5&#45;&gt;n1 -->
<g id="edge4" class="edge"><title>n5&#45;&gt;n1</title>
<path fill="none" stroke="black" d="M218.9,-507.078C221.791,-433.082 227.339,-291.088 230.215,-217.477"/>
<polygon fill="black" stroke="black" points="233.726,-217.258 230.62,-207.129 226.732,-216.984 233.726,-217.258"/>
</g>
<!-- n6 -->
<g id="node6" class="node"><title>n6</title>
<g id="a_node6"><a xlink:title="[./creationRNN.lua]:58_">
<ellipse fill="none" stroke="black" cx="448.045" cy="-423.37" rx="128.887" ry="48.1667"/>
<text text-anchor="middle" x="448.045" y="-442.17" font-family="Times,serif" font-size="14.00">GRU2 (6)</text>
<text text-anchor="start" x="365.045" y="-427.17" font-family="Times,serif" font-size="14.00">module = nn.gModule</text>
<text text-anchor="start" x="365.045" y="-412.17" font-family="Times,serif" font-size="14.00">reverseMap = {}</text>
<text text-anchor="middle" x="448.045" y="-397.17" font-family="Times,serif" font-size="14.00">mapindex = {Node5,Node10}</text>
</a>
</g>
</g>
<!-- n5&#45;&gt;n6 -->
<g id="edge9" class="edge"><title>n5&#45;&gt;n6</title>
<path fill="none" stroke="black" d="M286.353,-515.482C312.382,-500.815 342.158,-484.036 369.005,-468.908"/>
<polygon fill="black" stroke="black" points="370.994,-471.805 377.988,-463.846 367.558,-465.706 370.994,-471.805"/>
</g>
<!-- n6&#45;&gt;n3 -->
<g id="edge5" class="edge"><title>n6&#45;&gt;n3</title>
<path fill="none" stroke="black" d="M419.97,-376.111C412.187,-363.287 403.756,-349.396 396.036,-336.675"/>
<polygon fill="black" stroke="black" points="399.002,-334.817 390.822,-328.084 393.018,-338.449 399.002,-334.817"/>
</g>
<!-- n7 -->
<g id="node7" class="node"><title>n7</title>
<g id="a_node7"><a xlink:title="[./creationRNN.lua]:58_">
<ellipse fill="none" stroke="black" cx="615.045" cy="-291.203" rx="128.887" ry="48.1667"/>
<text text-anchor="middle" x="615.045" y="-310.003" font-family="Times,serif" font-size="14.00">GRU3 (7)</text>
<text text-anchor="start" x="532.045" y="-295.003" font-family="Times,serif" font-size="14.00">module = nn.gModule</text>
<text text-anchor="start" x="532.045" y="-280.003" font-family="Times,serif" font-size="14.00">reverseMap = {}</text>
<text text-anchor="middle" x="615.045" y="-265.003" font-family="Times,serif" font-size="14.00">mapindex = {Node6,Node11}</text>
</a>
</g>
</g>
<!-- n6&#45;&gt;n7 -->
<g id="edge11" class="edge"><title>n6&#45;&gt;n7</title>
<path fill="none" stroke="black" d="M502.727,-379.748C518.586,-367.387 536.027,-353.793 552.336,-341.081"/>
<polygon fill="black" stroke="black" points="554.505,-343.828 560.24,-334.92 550.201,-338.307 554.505,-343.828"/>
</g>
<!-- n7&#45;&gt;n4 -->
<g id="edge6" class="edge"><title>n7&#45;&gt;n4</title>
<path fill="none" stroke="black" d="M591.676,-243.636C587.036,-234.391 582.174,-224.702 577.564,-215.515"/>
<polygon fill="black" stroke="black" points="580.668,-213.898 573.055,-206.53 574.412,-217.038 580.668,-213.898"/>
</g>
<!-- n8 -->
<g id="node8" class="node"><title>n8</title>
<g id="a_node8"><a xlink:title="[./creationRNN.lua]:53_">
<ellipse fill="none" stroke="black" cx="94.0452" cy="-687.703" rx="94.0904" ry="37.4533"/>
<text text-anchor="middle" x="94.0452" y="-699.003" font-family="Times,serif" font-size="14.00">Z ZE FIRST (8)</text>
<text text-anchor="start" x="35.5452" y="-684.003" font-family="Times,serif" font-size="14.00">module = nn.Identity</text>
<text text-anchor="middle" x="94.0452" y="-669.003" font-family="Times,serif" font-size="14.00">reverseMap = {}</text>
</a>
</g>
</g>
<!-- n8&#45;&gt;n5 -->
<g id="edge7" class="edge"><title>n8&#45;&gt;n5</title>
<path fill="none" stroke="black" d="M126.362,-652.503C138.969,-639.161 153.707,-623.565 167.591,-608.871"/>
<polygon fill="black" stroke="black" points="170.434,-610.959 174.759,-601.287 165.347,-606.151 170.434,-610.959"/>
</g>
<!-- n9 -->
<g id="node9" class="node"><title>n9</title>
<g id="a_node9"><a xlink:title="[./creationRNN.lua]:57_">
<ellipse fill="none" stroke="black" cx="300.045" cy="-687.703" rx="94.0904" ry="37.4533"/>
<text text-anchor="middle" x="300.045" y="-699.003" font-family="Times,serif" font-size="14.00">input1 (9)</text>
<text text-anchor="start" x="241.545" y="-684.003" font-family="Times,serif" font-size="14.00">module = nn.Identity</text>
<text text-anchor="middle" x="300.045" y="-669.003" font-family="Times,serif" font-size="14.00">reverseMap = {}</text>
</a>
</g>
</g>
<!-- n9&#45;&gt;n5 -->
<g id="edge8" class="edge"><title>n9&#45;&gt;n5</title>
<path fill="none" stroke="black" d="M277.365,-651.134C269.49,-638.785 260.469,-624.636 251.844,-611.11"/>
<polygon fill="black" stroke="black" points="254.577,-608.886 246.25,-602.336 248.675,-612.65 254.577,-608.886"/>
</g>
<!-- n10 -->
<g id="node10" class="node"><title>n10</title>
<g id="a_node10"><a xlink:title="[./creationRNN.lua]:57_">
<ellipse fill="none" stroke="black" cx="453.045" cy="-555.536" rx="94.0904" ry="37.4533"/>
<text text-anchor="middle" x="453.045" y="-566.836" font-family="Times,serif" font-size="14.00">input2 (10)</text>
<text text-anchor="start" x="394.545" y="-551.836" font-family="Times,serif" font-size="14.00">module = nn.Identity</text>
<text text-anchor="middle" x="453.045" y="-536.836" font-family="Times,serif" font-size="14.00">reverseMap = {}</text>
</a>
</g>
</g>
<!-- n10&#45;&gt;n6 -->
<g id="edge10" class="edge"><title>n10&#45;&gt;n6</title>
<path fill="none" stroke="black" d="M451.639,-517.931C451.21,-506.769 450.728,-494.215 450.259,-482.015"/>
<polygon fill="black" stroke="black" points="453.752,-481.746 449.87,-471.888 446.757,-482.015 453.752,-481.746"/>
</g>
<!-- n11 -->
<g id="node11" class="node"><title>n11</title>
<g id="a_node11"><a xlink:title="[./creationRNN.lua]:57_">
<ellipse fill="none" stroke="black" cx="659.045" cy="-555.536" rx="94.0904" ry="37.4533"/>
<text text-anchor="middle" x="659.045" y="-566.836" font-family="Times,serif" font-size="14.00">input3 (11)</text>
<text text-anchor="start" x="600.545" y="-551.836" font-family="Times,serif" font-size="14.00">module = nn.Identity</text>
<text text-anchor="middle" x="659.045" y="-536.836" font-family="Times,serif" font-size="14.00">reverseMap = {}</text>
</a>
</g>
</g>
<!-- n11&#45;&gt;n7 -->
<g id="edge12" class="edge"><title>n11&#45;&gt;n7</title>
<path fill="none" stroke="black" d="M652.927,-518.06C645.6,-474.373 633.239,-400.677 624.638,-349.395"/>
<polygon fill="black" stroke="black" points="628.076,-348.737 622.97,-339.453 621.173,-349.895 628.076,-348.737"/>
</g>
<!-- n12 -->
<g id="node12" class="node"><title>n12</title>
<g id="a_node12"><a xlink:title="[[C]]:&#45;1_&#45;1">
<ellipse fill="none" stroke="black" cx="102.045" cy="-819.869" rx="77.5641" ry="48.1667"/>
<text text-anchor="middle" x="102.045" y="-838.669" font-family="Times,serif" font-size="14.00">Node12</text>
<text text-anchor="start" x="55.0452" y="-823.669" font-family="Times,serif" font-size="14.00">input = {}</text>
<text text-anchor="start" x="55.0452" y="-808.669" font-family="Times,serif" font-size="14.00">selectindex = 1</text>
<text text-anchor="middle" x="102.045" y="-793.669" font-family="Times,serif" font-size="14.00">reverseMap = {}</text>
</a>
</g>
</g>
<!-- n12&#45;&gt;n8 -->
<g id="edge13" class="edge"><title>n12&#45;&gt;n8</title>
<path fill="none" stroke="black" d="M99.1344,-771.508C98.4088,-759.701 97.6314,-747.052 96.9081,-735.284"/>
<polygon fill="black" stroke="black" points="100.396,-734.978 96.289,-725.212 93.4092,-735.407 100.396,-734.978"/>
</g>
<!-- n13 -->
<g id="node13" class="node"><title>n13</title>
<g id="a_node13"><a xlink:title="[[C]]:&#45;1_&#45;2">
<ellipse fill="none" stroke="black" cx="292.045" cy="-819.869" rx="77.5641" ry="48.1667"/>
<text text-anchor="middle" x="292.045" y="-838.669" font-family="Times,serif" font-size="14.00">Node13</text>
<text text-anchor="start" x="245.045" y="-823.669" font-family="Times,serif" font-size="14.00">input = {}</text>
<text text-anchor="start" x="245.045" y="-808.669" font-family="Times,serif" font-size="14.00">selectindex = 2</text>
<text text-anchor="middle" x="292.045" y="-793.669" font-family="Times,serif" font-size="14.00">reverseMap = {}</text>
</a>
</g>
</g>
<!-- n13&#45;&gt;n9 -->
<g id="edge14" class="edge"><title>n13&#45;&gt;n9</title>
<path fill="none" stroke="black" d="M294.956,-771.508C295.682,-759.701 296.459,-747.052 297.182,-735.284"/>
<polygon fill="black" stroke="black" points="300.681,-735.407 297.801,-725.212 293.694,-734.978 300.681,-735.407"/>
</g>
<!-- n14 -->
<g id="node14" class="node"><title>n14</title>
<g id="a_node14"><a xlink:title="[[C]]:&#45;1_&#45;3">
<ellipse fill="none" stroke="black" cx="466.045" cy="-819.869" rx="77.5641" ry="48.1667"/>
<text text-anchor="middle" x="466.045" y="-838.669" font-family="Times,serif" font-size="14.00">Node14</text>
<text text-anchor="start" x="419.045" y="-823.669" font-family="Times,serif" font-size="14.00">input = {}</text>
<text text-anchor="start" x="419.045" y="-808.669" font-family="Times,serif" font-size="14.00">selectindex = 3</text>
<text text-anchor="middle" x="466.045" y="-793.669" font-family="Times,serif" font-size="14.00">reverseMap = {}</text>
</a>
</g>
</g>
<!-- n14&#45;&gt;n10 -->
<g id="edge15" class="edge"><title>n14&#45;&gt;n10</title>
<path fill="none" stroke="black" d="M463.706,-771.666C461.343,-723.978 457.714,-650.745 455.359,-603.237"/>
<polygon fill="black" stroke="black" points="458.854,-603.029 454.863,-593.215 451.862,-603.376 458.854,-603.029"/>
</g>
<!-- n15 -->
<g id="node15" class="node"><title>n15</title>
<g id="a_node15"><a xlink:title="[[C]]:&#45;1_&#45;4">
<ellipse fill="none" stroke="black" cx="634.045" cy="-687.703" rx="77.5641" ry="48.1667"/>
<text text-anchor="middle" x="634.045" y="-706.503" font-family="Times,serif" font-size="14.00">Node15</text>
<text text-anchor="start" x="587.045" y="-691.503" font-family="Times,serif" font-size="14.00">input = {}</text>
<text text-anchor="start" x="587.045" y="-676.503" font-family="Times,serif" font-size="14.00">selectindex = 4</text>
<text text-anchor="middle" x="634.045" y="-661.503" font-family="Times,serif" font-size="14.00">reverseMap = {}</text>
</a>
</g>
</g>
<!-- n15&#45;&gt;n11 -->
<g id="edge16" class="edge"><title>n15&#45;&gt;n11</title>
<path fill="none" stroke="black" d="M643.071,-639.71C645.342,-627.882 647.78,-615.188 650.051,-603.368"/>
<polygon fill="black" stroke="black" points="653.545,-603.73 651.994,-593.25 646.671,-602.41 653.545,-603.73"/>
</g>
<!-- n16 -->
<g id="node16" class="node"><title>n16</title>
<g id="a_node16"><a xlink:title="[[C]]:&#45;1_ split at [.../mathieu/torch/install/share/lua/5.1/nngraph/gmodule.lua]:96&#45;mnode">
<ellipse fill="none" stroke="black" cx="379.045" cy="-941.429" rx="80.7205" ry="37.4533"/>
<text text-anchor="middle" x="379.045" y="-952.729" font-family="Times,serif" font-size="14.00">Node16</text>
<text text-anchor="start" x="330.045" y="-937.729" font-family="Times,serif" font-size="14.00">reverseMap = {}</text>
<text text-anchor="middle" x="379.045" y="-922.729" font-family="Times,serif" font-size="14.00">nSplitOutputs = 4</text>
</a>
</g>
</g>
<!-- n16&#45;&gt;n12 -->
<g id="edge17" class="edge"><title>n16&#45;&gt;n12</title>
<path fill="none" stroke="black" d="M319.239,-916.107C285.574,-902.268 242.832,-884.453 205.045,-867.952 194.663,-863.419 183.736,-858.54 173.036,-853.703"/>
<polygon fill="black" stroke="black" points="174.263,-850.416 163.71,-849.471 171.37,-856.791 174.263,-850.416"/>
</g>
<!-- n16&#45;&gt;n13 -->
<g id="edge18" class="edge"><title>n16&#45;&gt;n13</title>
<path fill="none" stroke="black" d="M353.647,-905.526C346.06,-895.099 337.578,-883.443 329.393,-872.194"/>
<polygon fill="black" stroke="black" points="332.216,-870.126 323.502,-864.099 326.556,-874.244 332.216,-870.126"/>
</g>
<!-- n16&#45;&gt;n14 -->
<g id="edge19" class="edge"><title>n16&#45;&gt;n14</title>
<path fill="none" stroke="black" d="M404.443,-905.526C412.031,-895.099 420.512,-883.443 428.698,-872.194"/>
<polygon fill="black" stroke="black" points="431.534,-874.244 434.588,-864.099 425.874,-870.126 431.534,-874.244"/>
</g>
<!-- n16&#45;&gt;n15 -->
<g id="edge20" class="edge"><title>n16&#45;&gt;n15</title>
<path fill="none" stroke="black" d="M450.766,-923.818C485.208,-912.791 524.985,-895.19 553.045,-867.952 587.381,-834.623 608.397,-784.076 620.387,-745.145"/>
<polygon fill="black" stroke="black" points="623.755,-746.098 623.243,-735.515 617.044,-744.107 623.755,-746.098"/>
</g>
<!-- n17 -->
<g id="node17" class="node"><title>n17</title>
<g id="a_node17"><a xlink:title="[[C]]:&#45;1_">
<ellipse fill="none" stroke="black" cx="379.045" cy="-1052.38" rx="77.5641" ry="37.4533"/>
<text text-anchor="middle" x="379.045" y="-1063.68" font-family="Times,serif" font-size="14.00">Node17</text>
<text text-anchor="start" x="332.045" y="-1048.68" font-family="Times,serif" font-size="14.00">input = {}</text>
<text text-anchor="middle" x="379.045" y="-1033.68" font-family="Times,serif" font-size="14.00">reverseMap = {}</text>
</a>
</g>
</g>
<!-- n17&#45;&gt;n16 -->
<g id="edge21" class="edge"><title>n17&#45;&gt;n16</title>
<path fill="none" stroke="black" d="M379.045,-1014.8C379.045,-1006.62 379.045,-997.845 379.045,-989.319"/>
<polygon fill="black" stroke="black" points="382.545,-989.101 379.045,-979.101 375.545,-989.101 382.545,-989.101"/>
</g>
</g>
</svg>
