<?xml version="1.0" encoding="UTF-8" standalone="no"?>
<!DOCTYPE svg PUBLIC "-//W3C//DTD SVG 1.1//EN"
 "http://www.w3.org/Graphics/SVG/1.1/DTD/svg11.dtd">
<!-- Generated by graphviz version 2.38.0 (20140413.2041)
 -->
<!-- Title: G Pages: 1 -->
<svg width="533pt" height="1638pt"
 viewBox="0.00 0.00 532.80 1637.96" xmlns="http://www.w3.org/2000/svg" xmlns:xlink="http://www.w3.org/1999/xlink">
<g id="graph0" class="graph" transform="scale(1 1) rotate(0) translate(4 1633.96)">
<title>G</title>
<polygon fill="white" stroke="none" points="-4,4 -4,-1633.96 528.801,-1633.96 528.801,4 -4,4"/>
<!-- n1 -->
<g id="node1" class="node"><title>n1</title>
<g id="a_node1"><a xlink:title="[TME5.lua]:46_">
<ellipse fill="none" stroke="black" cx="284.3" cy="-190.856" rx="113.689" ry="58.8803"/>
<text text-anchor="middle" x="284.3" y="-217.156" font-family="Times,serif" font-size="14.00">Node1</text>
<text text-anchor="start" x="211.8" y="-202.156" font-family="Times,serif" font-size="14.00">input = {Tensor[1]}</text>
<text text-anchor="start" x="211.8" y="-187.156" font-family="Times,serif" font-size="14.00">module = nn.Tanh</text>
<text text-anchor="start" x="211.8" y="-172.156" font-family="Times,serif" font-size="14.00">reverseMap = {}</text>
<text text-anchor="middle" x="284.3" y="-157.156" font-family="Times,serif" font-size="14.00">gradOutput = {Tensor[1]}</text>
</a>
</g>
</g>
<!-- n2 -->
<g id="node2" class="node"><title>n2</title>
<g id="a_node2"><a xlink:title="[[C]]:&#45;1_">
<ellipse fill="none" stroke="black" cx="284.3" cy="-48.0833" rx="113.689" ry="48.1667"/>
<text text-anchor="middle" x="284.3" y="-66.8833" font-family="Times,serif" font-size="14.00">Node2</text>
<text text-anchor="start" x="211.8" y="-51.8833" font-family="Times,serif" font-size="14.00">input = {Tensor[1]}</text>
<text text-anchor="start" x="211.8" y="-36.8833" font-family="Times,serif" font-size="14.00">reverseMap = {}</text>
<text text-anchor="middle" x="284.3" y="-21.8833" font-family="Times,serif" font-size="14.00">gradOutput = {Tensor[1]}</text>
</a>
</g>
</g>
<!-- n1&#45;&gt;n2 -->
<g id="edge1" class="edge"><title>n1&#45;&gt;n2</title>
<path fill="none" stroke="black" d="M284.3,-131.786C284.3,-123.386 284.3,-114.745 284.3,-106.361"/>
<polygon fill="black" stroke="black" points="287.8,-106.295 284.3,-96.2952 280.8,-106.295 287.8,-106.295"/>
</g>
<!-- n3 -->
<g id="node3" class="node"><title>n3</title>
<g id="a_node3"><a xlink:title="[TME5.lua]:45_">
<ellipse fill="none" stroke="black" cx="284.3" cy="-344.236" rx="119.502" ry="58.8803"/>
<text text-anchor="middle" x="284.3" y="-370.536" font-family="Times,serif" font-size="14.00">Node3</text>
<text text-anchor="start" x="207.8" y="-355.536" font-family="Times,serif" font-size="14.00">input = {Tensor[2]}</text>
<text text-anchor="start" x="207.8" y="-340.536" font-family="Times,serif" font-size="14.00">module = nn.Linear(2 &#45;&gt; 1)</text>
<text text-anchor="start" x="207.8" y="-325.536" font-family="Times,serif" font-size="14.00">reverseMap = {}</text>
<text text-anchor="middle" x="284.3" y="-310.536" font-family="Times,serif" font-size="14.00">gradOutput = {Tensor[1]}</text>
</a>
</g>
</g>
<!-- n3&#45;&gt;n1 -->
<g id="edge2" class="edge"><title>n3&#45;&gt;n1</title>
<path fill="none" stroke="black" d="M284.3,-285.142C284.3,-276.902 284.3,-268.368 284.3,-259.96"/>
<polygon fill="black" stroke="black" points="287.8,-259.795 284.3,-249.795 280.8,-259.795 287.8,-259.795"/>
</g>
<!-- n4 -->
<g id="node4" class="node"><title>n4</title>
<g id="a_node4"><a xlink:title="[TME5.lua]:44_">
<ellipse fill="none" stroke="black" cx="284.3" cy="-508.222" rx="130.215" ry="69.0935"/>
<text text-anchor="middle" x="284.3" y="-542.022" font-family="Times,serif" font-size="14.00">Node4</text>
<text text-anchor="start" x="200.3" y="-527.022" font-family="Times,serif" font-size="14.00">input = {Tensor[2],Tensor[2]}</text>
<text text-anchor="start" x="200.3" y="-512.022" font-family="Times,serif" font-size="14.00">mapindex = {Node5,Node6}</text>
<text text-anchor="start" x="200.3" y="-497.022" font-family="Times,serif" font-size="14.00">module = nn.CMulTable</text>
<text text-anchor="start" x="200.3" y="-482.022" font-family="Times,serif" font-size="14.00">reverseMap = {}</text>
<text text-anchor="middle" x="284.3" y="-467.022" font-family="Times,serif" font-size="14.00">gradOutput = {Tensor[2]}</text>
</a>
</g>
</g>
<!-- n4&#45;&gt;n3 -->
<g id="edge3" class="edge"><title>n4&#45;&gt;n3</title>
<path fill="none" stroke="black" d="M284.3,-438.526C284.3,-430.127 284.3,-421.548 284.3,-413.161"/>
<polygon fill="black" stroke="black" points="287.8,-413.05 284.3,-403.05 280.8,-413.051 287.8,-413.05"/>
</g>
<!-- n5 -->
<g id="node5" class="node"><title>n5</title>
<g id="a_node5"><a xlink:title="[TME5.lua]:39_">
<ellipse fill="none" stroke="black" cx="149.3" cy="-978.968" rx="113.689" ry="58.8803"/>
<text text-anchor="middle" x="149.3" y="-1005.27" font-family="Times,serif" font-size="14.00">Node5</text>
<text text-anchor="start" x="76.8" y="-990.268" font-family="Times,serif" font-size="14.00">input = {Tensor[2]}</text>
<text text-anchor="start" x="76.8" y="-975.268" font-family="Times,serif" font-size="14.00">module = nn.Identity</text>
<text text-anchor="start" x="76.8" y="-960.268" font-family="Times,serif" font-size="14.00">reverseMap = {}</text>
<text text-anchor="middle" x="149.3" y="-945.268" font-family="Times,serif" font-size="14.00">gradOutput = {Tensor[2]}</text>
</a>
</g>
</g>
<!-- n5&#45;&gt;n4 -->
<g id="edge4" class="edge"><title>n5&#45;&gt;n4</title>
<path fill="none" stroke="black" d="M160.459,-920.317C175.203,-847.757 203.536,-719.759 239.3,-613.519 242.438,-604.197 246.061,-594.549 249.862,-585.055"/>
<polygon fill="black" stroke="black" points="253.17,-586.212 253.71,-575.631 246.689,-583.566 253.17,-586.212"/>
</g>
<!-- n6 -->
<g id="node6" class="node"><title>n6</title>
<g id="a_node6"><a xlink:title="[TME5.lua]:43_">
<ellipse fill="none" stroke="black" cx="362.3" cy="-672.209" rx="113.689" ry="58.8803"/>
<text text-anchor="middle" x="362.3" y="-698.509" font-family="Times,serif" font-size="14.00">Node6</text>
<text text-anchor="start" x="289.8" y="-683.509" font-family="Times,serif" font-size="14.00">input = {Tensor[2]}</text>
<text text-anchor="start" x="289.8" y="-668.509" font-family="Times,serif" font-size="14.00">module = nn.ReLU</text>
<text text-anchor="start" x="289.8" y="-653.509" font-family="Times,serif" font-size="14.00">reverseMap = {}</text>
<text text-anchor="middle" x="362.3" y="-638.509" font-family="Times,serif" font-size="14.00">gradOutput = {Tensor[2]}</text>
</a>
</g>
</g>
<!-- n6&#45;&gt;n4 -->
<g id="edge5" class="edge"><title>n6&#45;&gt;n4</title>
<path fill="none" stroke="black" d="M335.238,-615.008C330.556,-605.284 325.619,-595.031 320.736,-584.891"/>
<polygon fill="black" stroke="black" points="323.768,-583.119 316.276,-575.628 317.461,-586.156 323.768,-583.119"/>
</g>
<!-- n7 -->
<g id="node7" class="node"><title>n7</title>
<g id="a_node7"><a xlink:title="[[C]]:&#45;1_&#45;1">
<ellipse fill="none" stroke="black" cx="139.3" cy="-1132.35" rx="139.1" ry="58.8803"/>
<text text-anchor="middle" x="139.3" y="-1158.65" font-family="Times,serif" font-size="14.00">Node7</text>
<text text-anchor="start" x="48.8" y="-1143.65" font-family="Times,serif" font-size="14.00">input = {{Tensor[2],Tensor[1]}}</text>
<text text-anchor="start" x="48.8" y="-1128.65" font-family="Times,serif" font-size="14.00">reverseMap = {}</text>
<text text-anchor="start" x="48.8" y="-1113.65" font-family="Times,serif" font-size="14.00">selectindex = 1</text>
<text text-anchor="middle" x="139.3" y="-1098.65" font-family="Times,serif" font-size="14.00">gradOutput = {Tensor[2]}</text>
</a>
</g>
</g>
<!-- n7&#45;&gt;n5 -->
<g id="edge6" class="edge"><title>n7&#45;&gt;n5</title>
<path fill="none" stroke="black" d="M143.138,-1073.25C143.686,-1064.95 144.254,-1056.36 144.813,-1047.89"/>
<polygon fill="black" stroke="black" points="148.322,-1047.87 145.489,-1037.66 141.338,-1047.4 148.322,-1047.87"/>
</g>
<!-- n8 -->
<g id="node8" class="node"><title>n8</title>
<g id="a_node8"><a xlink:title="[TME5.lua]:42_">
<ellipse fill="none" stroke="black" cx="390.3" cy="-825.588" rx="113.689" ry="58.8803"/>
<text text-anchor="middle" x="390.3" y="-851.888" font-family="Times,serif" font-size="14.00">Node8</text>
<text text-anchor="start" x="317.8" y="-836.888" font-family="Times,serif" font-size="14.00">input = {Tensor[2]}</text>
<text text-anchor="start" x="317.8" y="-821.888" font-family="Times,serif" font-size="14.00">module = nn.L1Penalty</text>
<text text-anchor="start" x="317.8" y="-806.888" font-family="Times,serif" font-size="14.00">reverseMap = {}</text>
<text text-anchor="middle" x="390.3" y="-791.888" font-family="Times,serif" font-size="14.00">gradOutput = {Tensor[2]}</text>
</a>
</g>
</g>
<!-- n8&#45;&gt;n6 -->
<g id="edge7" class="edge"><title>n8&#45;&gt;n6</title>
<path fill="none" stroke="black" d="M379.635,-766.926C378.04,-758.306 376.384,-749.354 374.757,-740.555"/>
<polygon fill="black" stroke="black" points="378.196,-739.907 372.936,-730.71 371.313,-741.18 378.196,-739.907"/>
</g>
<!-- n9 -->
<g id="node9" class="node"><title>n9</title>
<g id="a_node9"><a xlink:title="[[C]]:&#45;1_ split at [.../mathieu/torch/install/share/lua/5.1/nngraph/gmodule.lua]:96&#45;mnode">
<ellipse fill="none" stroke="black" cx="248.3" cy="-1439.11" rx="163.183" ry="58.8803"/>
<text text-anchor="middle" x="248.3" y="-1465.41" font-family="Times,serif" font-size="14.00">Node9</text>
<text text-anchor="start" x="140.8" y="-1450.41" font-family="Times,serif" font-size="14.00">input = {{Tensor[2],Tensor[1]}}</text>
<text text-anchor="start" x="140.8" y="-1435.41" font-family="Times,serif" font-size="14.00">reverseMap = {}</text>
<text text-anchor="start" x="140.8" y="-1420.41" font-family="Times,serif" font-size="14.00">nSplitOutputs = 2</text>
<text text-anchor="middle" x="248.3" y="-1405.41" font-family="Times,serif" font-size="14.00">gradOutput = {{Tensor[2],Tensor[1]}}</text>
</a>
</g>
</g>
<!-- n9&#45;&gt;n7 -->
<g id="edge8" class="edge"><title>n9&#45;&gt;n7</title>
<path fill="none" stroke="black" d="M227.798,-1380.78C209.414,-1329.38 182.438,-1253.96 163.106,-1199.91"/>
<polygon fill="black" stroke="black" points="166.373,-1198.65 159.71,-1190.41 159.782,-1201.01 166.373,-1198.65"/>
</g>
<!-- n13 -->
<g id="node13" class="node"><title>n13</title>
<g id="a_node13"><a xlink:title="[[C]]:&#45;1_&#45;2">
<ellipse fill="none" stroke="black" cx="384.3" cy="-1285.73" rx="139.1" ry="58.8803"/>
<text text-anchor="middle" x="384.3" y="-1312.03" font-family="Times,serif" font-size="14.00">Node13</text>
<text text-anchor="start" x="293.8" y="-1297.03" font-family="Times,serif" font-size="14.00">input = {{Tensor[2],Tensor[1]}}</text>
<text text-anchor="start" x="293.8" y="-1282.03" font-family="Times,serif" font-size="14.00">reverseMap = {}</text>
<text text-anchor="start" x="293.8" y="-1267.03" font-family="Times,serif" font-size="14.00">selectindex = 2</text>
<text text-anchor="middle" x="384.3" y="-1252.03" font-family="Times,serif" font-size="14.00">gradOutput = {Tensor[1]}</text>
</a>
</g>
</g>
<!-- n9&#45;&gt;n13 -->
<g id="edge13" class="edge"><title>n9&#45;&gt;n13</title>
<path fill="none" stroke="black" d="M297.784,-1383.03C307.939,-1371.72 318.691,-1359.76 329.035,-1348.24"/>
<polygon fill="black" stroke="black" points="331.683,-1350.53 335.763,-1340.75 326.476,-1345.85 331.683,-1350.53"/>
</g>
<!-- n10 -->
<g id="node10" class="node"><title>n10</title>
<g id="a_node10"><a xlink:title="[TME5.lua]:41_">
<ellipse fill="none" stroke="black" cx="405.3" cy="-978.968" rx="119.502" ry="58.8803"/>
<text text-anchor="middle" x="405.3" y="-1005.27" font-family="Times,serif" font-size="14.00">Node10</text>
<text text-anchor="start" x="328.8" y="-990.268" font-family="Times,serif" font-size="14.00">input = {Tensor[1]}</text>
<text text-anchor="start" x="328.8" y="-975.268" font-family="Times,serif" font-size="14.00">module = nn.Linear(1 &#45;&gt; 2)</text>
<text text-anchor="start" x="328.8" y="-960.268" font-family="Times,serif" font-size="14.00">reverseMap = {}</text>
<text text-anchor="middle" x="405.3" y="-945.268" font-family="Times,serif" font-size="14.00">gradOutput = {Tensor[2]}</text>
</a>
</g>
</g>
<!-- n10&#45;&gt;n8 -->
<g id="edge9" class="edge"><title>n10&#45;&gt;n8</title>
<path fill="none" stroke="black" d="M399.586,-920.306C398.747,-911.838 397.877,-903.051 397.02,-894.402"/>
<polygon fill="black" stroke="black" points="400.492,-893.947 396.023,-884.341 393.526,-894.637 400.492,-893.947"/>
</g>
<!-- n11 -->
<g id="node11" class="node"><title>n11</title>
<g id="a_node11"><a xlink:title="[[C]]:&#45;1_">
<ellipse fill="none" stroke="black" cx="248.3" cy="-1581.88" rx="163.183" ry="48.1667"/>
<text text-anchor="middle" x="248.3" y="-1600.68" font-family="Times,serif" font-size="14.00">Node11</text>
<text text-anchor="start" x="140.8" y="-1585.68" font-family="Times,serif" font-size="14.00">input = {Tensor[2],Tensor[1]}</text>
<text text-anchor="start" x="140.8" y="-1570.68" font-family="Times,serif" font-size="14.00">reverseMap = {}</text>
<text text-anchor="middle" x="248.3" y="-1555.68" font-family="Times,serif" font-size="14.00">gradOutput = {{Tensor[2],Tensor[1]}}</text>
</a>
</g>
</g>
<!-- n11&#45;&gt;n9 -->
<g id="edge10" class="edge"><title>n11&#45;&gt;n9</title>
<path fill="none" stroke="black" d="M248.3,-1533.61C248.3,-1525.46 248.3,-1516.84 248.3,-1508.27"/>
<polygon fill="black" stroke="black" points="251.8,-1508.26 248.3,-1498.26 244.8,-1508.26 251.8,-1508.26"/>
</g>
<!-- n12 -->
<g id="node12" class="node"><title>n12</title>
<g id="a_node12"><a xlink:title="[TME5.lua]:40_">
<ellipse fill="none" stroke="black" cx="410.3" cy="-1132.35" rx="113.689" ry="58.8803"/>
<text text-anchor="middle" x="410.3" y="-1158.65" font-family="Times,serif" font-size="14.00">Node12</text>
<text text-anchor="start" x="337.8" y="-1143.65" font-family="Times,serif" font-size="14.00">input = {Tensor[1]}</text>
<text text-anchor="start" x="337.8" y="-1128.65" font-family="Times,serif" font-size="14.00">module = nn.Identity</text>
<text text-anchor="start" x="337.8" y="-1113.65" font-family="Times,serif" font-size="14.00">reverseMap = {}</text>
<text text-anchor="middle" x="410.3" y="-1098.65" font-family="Times,serif" font-size="14.00">gradOutput = {Tensor[1]}</text>
</a>
</g>
</g>
<!-- n12&#45;&gt;n10 -->
<g id="edge11" class="edge"><title>n12&#45;&gt;n10</title>
<path fill="none" stroke="black" d="M408.381,-1073.25C408.107,-1064.95 407.823,-1056.36 407.543,-1047.89"/>
<polygon fill="black" stroke="black" points="411.034,-1047.54 407.205,-1037.66 404.038,-1047.77 411.034,-1047.54"/>
</g>
<!-- n13&#45;&gt;n12 -->
<g id="edge12" class="edge"><title>n13&#45;&gt;n12</title>
<path fill="none" stroke="black" d="M394.204,-1227.07C395.668,-1218.54 397.189,-1209.69 398.684,-1200.98"/>
<polygon fill="black" stroke="black" points="402.181,-1201.3 400.424,-1190.85 395.282,-1200.11 402.181,-1201.3"/>
</g>
</g>
</svg>
